<svg xmlns="http://www.w3.org/2000/svg" style="display:none">
  <symbol id="icon-build" viewBox="0 0 24 24" role="img">
    <title>build</title>
    <desc>Build icon representing compilation and code construction</desc>
    <path d="M14.7 6.3a1 1 0 0 0 0 1.4l1.6 1.6a1 1 0 0 0 1.4 0l3.77-3.77a6 6 0 0 1-7.94 7.94l-6.91 6.91a2.12 2.12 0 0 1-3-3l6.91-6.91a6 6 0 0 1 7.94-7.94l-3.76 3.76Z" stroke="currentColor" stroke-width="1.5" stroke-linecap="round" stroke-linejoin="round" fill="none"/>
  </symbol>
  <symbol id="icon-clock" viewBox="0 0 24 24" role="img">
    <title>clock</title>
    <desc>Time and clock icon representing a 24-hour clock face</desc>
    <path d="M12 6v6l4 2" stroke="currentColor" stroke-width="1.5" stroke-linecap="round" stroke-linejoin="round" fill="none"/>
    <path d="M21 12a9 9 0 1 1-18 0 9 9 0 0 1 18 0Z" stroke="currentColor" stroke-width="1.5" stroke-linecap="round" stroke-linejoin="round" fill="none"/>
  </symbol>
  <symbol id="icon-folder" viewBox="0 0 24 24" role="img">
    <title>folder</title>
    <desc>Folder icon representing file organization and storage</desc>
    <path d="M2 6a2 2 0 0 1 2-2h5l2 2h9a2 2 0 0 1 2 2v10a2 2 0 0 1-2 2H4a2 2 0 0 1-2-2V6Z" stroke="currentColor" stroke-width="1.5" stroke-linecap="round" stroke-linejoin="round" fill="none"/>
  </symbol>
  <symbol id="icon-shield" viewBox="0 0 24 24" role="img">
    <title>shield</title>
    <desc>Shield icon representing security and protection</desc>
    <path d="M12 3 4 7v5c0 5.25 3.5 10 8 11 4.5-1 8-5.75 8-11V7l-8-4Z" stroke="currentColor" stroke-width="1.5" stroke-linecap="round" stroke-linejoin="round" fill="none"/>
  </symbol>
  <symbol id="icon-build-outline" viewBox="0 0 24 24" role="img">
    <title>build-outline</title>
    <desc>Build icon representing compilation and code construction</desc>
    <path d="M14.7 6.3a1 1 0 0 0 0 1.4l1.6 1.6a1 1 0 0 0 1.4 0l3.77-3.77a6 6 0 0 1-7.94 7.94l-6.91 6.91a2.12 2.12 0 0 1-3-3l6.91-6.91a6 6 0 0 1 7.94-7.94l-3.76 3.76Z" stroke="currentColor" stroke-width="1.5" stroke-linecap="round" stroke-linejoin="round" fill="none"/>
  </symbol>
  <symbol id="icon-clock-outline" viewBox="0 0 24 24" role="img">
    <title>clock-outline</title>
    <desc>Time and clock icon representing a 24-hour clock face</desc>
    <path d="M12 6v6l4 2" stroke="currentColor" stroke-width="1.5" stroke-linecap="round" stroke-linejoin="round" fill="none"/>
    <path d="M21 12a9 9 0 1 1-18 0 9 9 0 0 1 18 0Z" stroke="currentColor" stroke-width="1.5" stroke-linecap="round" stroke-linejoin="round" fill="none"/>
  </symbol>
  <symbol id="icon-folder-outline" viewBox="0 0 24 24" role="img">
    <title>folder-outline</title>
    <desc>Folder icon representing file organization and storage</desc>
    <path d="M2 6a2 2 0 0 1 2-2h5l2 2h9a2 2 0 0 1 2 2v10a2 2 0 0 1-2 2H4a2 2 0 0 1-2-2V6Z" stroke="currentColor" stroke-width="1.5" stroke-linecap="round" stroke-linejoin="round" fill="none"/>
  </symbol>
  <symbol id="icon-shield-outline" viewBox="0 0 24 24" role="img">
    <title>shield-outline</title>
    <desc>Shield icon representing security and protection</desc>
    <path d="M12 3 4 7v5c0 5.25 3.5 10 8 11 4.5-1 8-5.75 8-11V7l-8-4Z" stroke="currentColor" stroke-width="1.5" stroke-linecap="round" stroke-linejoin="round" fill="none"/>
  </symbol>
</svg>
